<svg class="icon" style="width: 1em;height: 1em;vertical-align: middle;fill: currentColor;overflow: hidden;" viewBox="0 0 1024 1024" version="1.1" xmlns="http://www.w3.org/2000/svg" p-id="8161"><path d="M884.363636 74.472727h-744.727272c-51.2 0-93.090909 41.890909-93.090909 93.090909v512c0 51.2 41.890909 93.090909 93.090909 93.090909h335.127272v102.4h-158.254545c-18.618182 0-37.236364 18.618182-37.236364 37.236364s18.618182 37.236364 37.236364 37.236364h390.981818c18.618182 0 37.236364-13.963636 37.236364-37.236364 0-18.618182-18.618182-37.236364-37.236364-37.236364h-158.254545v-102.4H884.363636c51.2 0 93.090909-41.890909 93.090909-93.090909v-512c0-51.2-41.890909-93.090909-93.090909-93.090909z m18.618182 605.090909c0 9.309091-9.309091 18.618182-18.618182 18.618182h-744.727272c-9.309091 0-18.618182-9.309091-18.618182-18.618182v-512c0-9.309091 9.309091-18.618182 18.618182-18.618181h744.727272c9.309091 0 18.618182 9.309091 18.618182 18.618181v512zM232.727273 460.8v-125.672727h-60.509091v153.6c0 27.927273 18.618182 46.545455 46.545454 46.545454h111.709091v-51.2h-74.472727c-13.963636 0-23.272727-9.309091-23.272727-23.272727zM358.4 335.127273h60.509091v200.145454h-60.509091zM591.127273 367.709091l-32.581818 111.709091-32.581819-111.709091c-9.309091-18.618182-27.927273-32.581818-46.545454-32.581818h-32.581818l65.163636 172.218182c4.654545 13.963636 23.272727 27.927273 41.890909 27.927272h4.654546c18.618182 0 37.236364-13.963636 41.890909-32.581818l65.163636-167.563636h-27.927273c-23.272727 0-41.890909 13.963636-46.545454 32.581818zM684.218182 381.672727v107.054546c0 27.927273 18.618182 46.545455 46.545454 46.545454h121.018182v-46.545454H744.727273v-37.236364h97.745454v-41.890909H744.727273v-32.581818h107.054545v-41.890909h-121.018182c-27.927273 0-46.545455 18.618182-46.545454 46.545454z" p-id="8162"></path></svg>