<svg class="icon" style="width: 1em;height: 1em;vertical-align: middle;fill: currentColor;overflow: hidden;color:#0c34ba" viewBox="0 0 1024 1024" version="1.1" xmlns="http://www.w3.org/2000/svg" p-id="12299"><path d="M343.096951 499.570679a326.863866 326.863866 0 0 0-41.526497-54.613635C44.546606 201.209091 219.335406 83.361926 219.335406 83.361926c-27.621412 117.092138 3.145947 146.601118 127.473762 290.433803 24.79006 28.628115 41.463578 54.36196 53.355257 77.95656a365.118578 365.118578 0 0 1 141.253008-61.157205 486.803798 486.803798 0 0 0-35.612117-125.145761C429.107135 89.779657 269.041365-9.883935 148.362848 42.842132 27.684331 95.568199-7.927786 280.675705 68.707477 456.282452c39.00974 89.281968 99.537755 158.618634 165.476798 198.572158a481.329851 481.329851 0 0 1 68.896234-112.561974c12.520868-15.478058 26.237196-29.320224 40.016442-42.721957zM747.602782 446.655855c-44.106173-35.989631-103.249972-45.112876-165.665555-33.472873a363.482686 363.482686 0 0 0-141.315927 61.157204c-19.630708 13.842166-38.695145 30.075251-57.004555 47.818391a511.090507 511.090507 0 0 0-40.079361 42.784875 485.608338 485.608338 0 0 0-68.833315 112.624893c-52.600229 120.678517-43.162389 243.93671 34.290819 307.107321 102.054512 83.178832 283.009368 30.201089 404.128318-118.350516 121.118949-148.551605 136.534088-336.427544 34.479576-419.669295z m-203.416916 327.870569c-88.464022 219.650001-219.775839 137.981224-219.775839 137.981224s85.192238-3.586379 135.716143-145.720253c8.808651-29.949413 18.30941-55.305744 28.187682-78.774506 27.055142-64.240232 57.444987-106.144243 87.834833-132.192682 84.688886-72.734289 167.930637-27.621412 167.930637-27.621413-116.840462 29.068548-128.857978 69.902936-199.893456 246.32763zM689.654444 24.784398c-71.664667 52.600229-73.615154 171.768692-4.278488 266.210012s183.597452 128.417546 255.325037 75.880236c71.664667-52.600229 73.615154-171.768692 4.215569-266.210013C875.642815 6.160393 761.31911-27.752913 689.654444 24.784398z m209.016701 323.277486s14.282598-53.355257-64.743584-103.187053C640.955188 139.108102 739.926672 37.61986 739.926672 37.61986c-4.467244 76.257749 18.686924 89.093212 115.015813 156.038958 120.049327 83.430507 43.72866 154.403066 43.72866 154.403066z" p-id="12300"></path></svg>