<svg class="icon" style="width: 1em;height: 1em;vertical-align: middle;fill: currentColor;overflow: hidden;" viewBox="0 0 1024 1024" version="1.1" xmlns="http://www.w3.org/2000/svg" p-id="11648"><path d="M829.2 952.2c-0.6 0-1.2 0-1.8-0.1-14.4-0.9-25.7-13.2-25.7-27.9V602.6c-0.8 0.1-1.6 0.3-2.4 0.4-118.5 19.7-184 76-253.8 167.3 2.7 4.5 7.4 12.4 15.9 26.6 2.5 4.2 3.8 9 3.8 13.9 0 13.5-10.1 25.1-23.5 27-1.3 0.2-2.5 0.3-3.7 0.3-9.6 0-18.5-5.1-23.4-13.3-0.8-1.4-1.7-2.9-2.5-4.3-11.1 19.7-18.6 27.1-24.3 38.8-4.5 9.3-14.1 15.3-24.5 15.3-0.5 0-1.1 0-1.7-0.1h-0.2c-9-0.6-17.1-5.7-21.6-13.5s-4.9-17.3-1-25.5c12-25.1 24.1-41.3 37.3-61.8 0.1-0.2 0.3-0.5 0.4-0.6 0 0 1.4-2.1 2-3.1-69.7-91.1-135.2-147.4-253.7-167.1-0.6-0.1-1.2-0.2-1.7-0.3v322.5c0 15.1-12.3 27.5-27.5 27.5-15.1 0-27.5-12.3-27.5-27.5V595.7c0-6.2 1.4-12.5 4.1-18.1 7-14.7 20-25.4 35.6-29.4 3.4-0.8 6.8-1.3 10.3-1.3 2 0 4.1 0.1 6.1 0.4l2.6 0.4c2.3 0.3 4.5 0.7 6.8 1.1C361 570 434.7 628.9 512.1 724c77.4-95.1 151-154 278.3-175.2 2.7-0.5 5.5-0.9 8.1-1.3l1.2-0.2c2-0.3 4.1-0.5 6.2-0.5 3.4 0 6.8 0.4 10.2 1.2 18.1 4.5 32.9 18.4 38.6 36.4 1.3 4.2 2 8.4 2 12.8v327.4c0 7.3-2.9 14.2-8 19.4-5.2 5.3-12.1 8.2-19.5 8.2z m-543.8-0.1c-15.1 0-27.5-12.3-27.5-27.5s12.3-27.5 27.5-27.5h453.9c15.1 0 27.5 12.3 27.5 27.5s-12.3 27.5-27.5 27.5H285.4z m227-880.9C373 71.2 260 184.2 260 323.6S373 576 512.4 576s252.4-113 252.4-252.4-113-252.4-252.4-252.4z m0 448.9c-108.5 0-196.4-87.9-196.4-196.4s87.9-196.4 196.4-196.4 196.4 87.9 196.4 196.4c0 108.4-87.9 196.4-196.4 196.4z" fill="#1A1A1A" p-id="11649"></path></svg>